<svg width="221" height="46" viewBox="0 0 221 46" fill="none" xmlns="http://www.w3.org/2000/svg">
<path d="M20.45 45.7C20.3167 45.4667 20.0667 45.1333 19.7 44.7C19.3333 44.3 18.9333 43.8833 18.5 43.45C18.1 43.05 17.75 42.7667 17.45 42.6C19.6833 41.3667 21.4667 39.9167 22.8 38.25C24.1333 36.5833 25.1 34.5333 25.7 32.1C26.3 29.6333 26.6 26.6333 26.6 23.1V1.85H43.55V40.8C43.55 42.4333 43.1333 43.6333 42.3 44.4C41.5 45.1667 40.1333 45.55 38.2 45.55H34.3C34.2333 44.9167 34.0833 44.1833 33.85 43.35C33.65 42.5167 33.45 41.85 33.25 41.35H37.3C38 41.35 38.5 41.2333 38.8 41C39.1 40.7333 39.25 40.2667 39.25 39.6V27.85H30.6C30.2333 32.1167 29.25 35.6667 27.65 38.5C26.0833 41.3333 23.6833 43.7333 20.45 45.7ZM10 45.55V36.45H0.2V32.75H10V29.15H2.2V12.05H10V8.7H0.8V5H10V0.449998H14.35V5H23.75V8.7H14.35V12.05H22.05V29.15H14.35V32.75H23.75V36.45H14.35V45.55H10ZM30.8 23.95H39.25V16.7H30.8V23.95ZM30.8 12.8H39.25V5.7H30.8V12.8ZM6.35 25.75H17.85V22.2H6.35V25.75ZM6.35 19H17.85V15.5H6.35V19ZM61.9 43.5V11.4H66.6V39H78.55V2.75H83.25V39H95.35V11.4H100.05V43.5H61.9ZM118.45 44.15V2.15H160.55V6.2H122.95V39.9H160.95V44.15H118.45ZM127 38.85C126.9 38.4833 126.717 38.05 126.45 37.55C126.217 37.0167 125.967 36.5167 125.7 36.05C125.433 35.55 125.2 35.2 125 35C128.667 34.3333 131.6 33.2667 133.8 31.8C136.033 30.3 137.617 28.3 138.55 25.8H125V21.85H139.45C139.517 21.3833 139.567 20.9 139.6 20.4C139.633 19.9 139.65 19.3833 139.65 18.85V15.85H132.95C131.75 17.65 130.4 19.25 128.9 20.65C128.633 20.45 128.267 20.2 127.8 19.9C127.333 19.5667 126.867 19.25 126.4 18.95C125.933 18.65 125.533 18.45 125.2 18.35C126.233 17.4833 127.267 16.35 128.3 14.95C129.333 13.5167 130.25 12.0333 131.05 10.5C131.883 8.93333 132.467 7.53333 132.8 6.3L137 7.55C136.567 8.95 135.983 10.3833 135.25 11.85H156.1V15.85H144V18.85C144 19.35 143.983 19.85 143.95 20.35C143.95 20.85 143.933 21.35 143.9 21.85H159V25.8H144.9C146.333 28 148.183 29.8667 150.45 31.4C152.75 32.9333 155.417 34.0667 158.45 34.8C158.25 35.0667 157.983 35.4667 157.65 36C157.35 36.5333 157.05 37.0667 156.75 37.6C156.483 38.1333 156.317 38.55 156.25 38.85C153.183 37.9833 150.45 36.6667 148.05 34.9C145.683 33.1 143.717 30.95 142.15 28.45C140.95 30.9833 139.117 33.1167 136.65 34.85C134.183 36.55 130.967 37.8833 127 38.85ZM175.9 45.6V2.2H189.9L191.7 3.8C191.633 3.96666 191.517 4.21666 191.35 4.55C191.183 4.88333 190.983 5.28333 190.75 5.75H202.2V0.249998H206.8V5.75H219.1V16.2H214.6V9.65H194.95V16.2H190.5V6.35C190.033 7.25 189.517 8.25 188.95 9.35C188.383 10.4167 187.817 11.4833 187.25 12.55C186.717 13.5833 186.233 14.5 185.8 15.3C185.4 16.0667 185.133 16.5833 185 16.85C186.533 18.25 187.9 19.8167 189.1 21.55C190.3 23.25 190.9 25.1667 190.9 27.3C190.9 30.2 190.233 32.3333 188.9 33.7C187.567 35.0333 185.867 35.7 183.8 35.7H181.75C181.65 34.9667 181.467 34.1833 181.2 33.35C180.967 32.4833 180.75 31.8167 180.55 31.35H182.85C183.95 31.35 184.817 30.9833 185.45 30.25C186.117 29.5167 186.45 28.3333 186.45 26.7C186.45 24.9 185.917 23.2167 184.85 21.65C183.783 20.0833 182.417 18.6 180.75 17.2C180.85 17 181.083 16.5333 181.45 15.8C181.817 15.0667 182.233 14.2 182.7 13.2C183.2 12.2 183.683 11.2 184.15 10.2C184.617 9.2 185.017 8.33333 185.35 7.6C185.717 6.83333 185.933 6.33333 186 6.1H180.1V45.6H175.9ZM188.65 45.8C188.417 45.3333 188.017 44.7167 187.45 43.95C186.917 43.1833 186.45 42.6333 186.05 42.3C190.117 41.0333 193.067 39.1833 194.9 36.75C196.733 34.3167 197.717 31.0833 197.85 27.05H191.15V22.85H219.15V27.05H210.2V39.15C210.2 39.5167 210.283 39.8 210.45 40C210.617 40.2 210.917 40.3167 211.35 40.35C211.383 40.3833 211.567 40.4167 211.9 40.45C212.267 40.45 212.633 40.4667 213 40.5C213.4 40.5 213.65 40.5 213.75 40.5C214.45 40.5 214.983 40.3833 215.35 40.15C215.75 39.9167 216.05 39.4167 216.25 38.65C216.483 37.8833 216.65 36.7 216.75 35.1C217.217 35.3667 217.867 35.65 218.7 35.95C219.533 36.25 220.267 36.4833 220.9 36.65C220.667 38.9833 220.3 40.75 219.8 41.95C219.3 43.1167 218.6 43.9 217.7 44.3C216.8 44.7333 215.633 44.95 214.2 44.95H210.25C208.65 44.95 207.5 44.6833 206.8 44.15C206.1 43.6167 205.75 42.7167 205.75 41.45V27.05H202.15C201.983 31.85 200.817 35.7667 198.65 38.8C196.483 41.8 193.15 44.1333 188.65 45.8ZM196.2 18.5V14.5H213.5V18.5H196.2Z" fill="black"/>
</svg>
